<?xml version="1.0" standalone="no"?>
<!DOCTYPE svg PUBLIC "-//W3C//DTD SVG 20010904//EN"
 "http://www.w3.org/TR/2001/REC-SVG-20010904/DTD/svg10.dtd">
<svg version="1.0" xmlns="http://www.w3.org/2000/svg"
 width="512.000000pt" height="512.000000pt" viewBox="0 0 512.000000 512.000000"
 preserveAspectRatio="xMidYMid meet">
<metadata>
Created by potrace 1.14, written by Peter Selinger 2001-2017
</metadata>
<g transform="translate(0.000000,512.000000) scale(0.100000,-0.100000)"
fill="#000000" stroke="none">
<path d="M3990 5014 l-105 -104 75 -75 c40 -41 72 -77 69 -80 -2 -2 -121 -122
-264 -265 l-259 -261 -273 273 -272 272 -107 -106 -107 -106 147 -147 c80 -80
146 -150 146 -153 0 -4 -529 -535 -1175 -1181 l-1174 -1175 124 -124 c122
-122 125 -126 108 -145 -10 -11 -123 -125 -251 -255 l-233 -235 118 -118 c65
-65 119 -122 121 -127 1 -5 -148 -159 -333 -343 -184 -184 -335 -339 -335
-346 0 -6 46 -56 102 -112 l102 -100 340 339 c186 187 342 340 345 340 3 0 62
-56 131 -125 l125 -125 253 253 252 253 123 -123 124 -123 1174 1175 c646 646
1177 1175 1180 1175 4 0 73 -66 154 -146 l147 -147 106 107 107 106 -273 273
-272 272 265 265 265 265 75 -75 74 -74 105 106 105 106 -493 494 c-271 271
-502 500 -512 509 -18 15 -25 10 -124 -87z"/>
</g>
</svg>
